<svg width="217" height="82" viewBox="0 0 217 82" fill="none" xmlns="http://www.w3.org/2000/svg">
<g filter="url(#filter0_d_150_4898)">
<mask id="path-1-outside-1_150_4898" maskUnits="userSpaceOnUse" x="10" y="6" width="197" height="62" fill="black">
<rect fill="white" x="10" y="6" width="197" height="62"/>
<path d="M24.44 13.84L33.32 12.64L29.06 32.68C30.98 32.52 32.74 31.68 34.34 30.16C35.98 28.64 37.26 26.76 38.18 24.52C39.1 22.28 39.56 20.08 39.56 17.92C39.56 15.52 38.94 13.56 37.7 12.04C36.46 10.52 34.6 9.76 32.12 9.76C27.24 9.76 23.42 11.04 20.66 13.6C17.94 16.16 16.58 19.74 16.58 24.34C16.58 25.82 16.72 26.86 17 27.46C17.28 28.02 17.42 28.34 17.42 28.42C15.26 28.42 13.64 27.98 12.56 27.1C11.52 26.18 11 24.68 11 22.6C11 20.04 12.04 17.56 14.12 15.16C16.24 12.72 18.94 10.76 22.22 9.28C25.5 7.76 28.78 7 32.06 7C35.22 7 37.86 7.54 39.98 8.62C42.1 9.7 43.66 11.14 44.66 12.94C45.7 14.7 46.22 16.66 46.22 18.82C46.22 21.42 45.5 23.96 44.06 26.44C42.66 28.92 40.64 30.96 38 32.56C35.36 34.12 32.32 34.9 28.88 34.9H28.58L24.92 52H16.28L24.44 13.84ZM52.2345 52.36C49.9545 52.36 48.0545 51.58 46.5345 50.02C45.0145 48.46 44.2545 46.02 44.2545 42.7C44.2545 39.74 44.8345 36.64 45.9945 33.4C47.1945 30.12 48.9545 27.36 51.2745 25.12C53.6345 22.84 56.4345 21.7 59.6745 21.7C61.3145 21.7 62.5345 21.98 63.3345 22.54C64.1345 23.1 64.5345 23.84 64.5345 24.76V25.18L65.1945 22H73.8345L69.5145 42.4C69.3545 43 69.2745 43.64 69.2745 44.32C69.2745 46.04 70.0945 46.9 71.7345 46.9C72.8545 46.9 73.8145 46.38 74.6145 45.34C75.4545 44.3 76.1145 42.94 76.5945 41.26H79.1145C77.6345 45.58 75.7945 48.52 73.5945 50.08C71.4345 51.6 69.2545 52.36 67.0545 52.36C65.3745 52.36 64.0145 51.9 62.9745 50.98C61.9745 50.02 61.3745 48.64 61.1745 46.84C60.0145 48.48 58.7145 49.82 57.2745 50.86C55.8745 51.86 54.1945 52.36 52.2345 52.36ZM56.1345 46.54C57.1345 46.54 58.1145 46.08 59.0745 45.16C60.0745 44.2 60.7545 42.9 61.1145 41.26L63.9945 27.7C63.9945 27.18 63.7945 26.68 63.3945 26.2C62.9945 25.68 62.3745 25.42 61.5345 25.42C59.9345 25.42 58.4945 26.36 57.2145 28.24C55.9345 30.08 54.9345 32.32 54.2145 34.96C53.4945 37.56 53.1345 39.86 53.1345 41.86C53.1345 43.86 53.4145 45.14 53.9745 45.7C54.5745 46.26 55.2945 46.54 56.1345 46.54ZM80.6966 22H89.3366L88.5566 25.72C89.9166 24.52 91.1366 23.6 92.2166 22.96C93.3366 22.32 94.5366 22 95.8166 22C97.0966 22 98.0966 22.44 98.8166 23.32C99.5766 24.2 99.9566 25.26 99.9566 26.5C99.9566 27.66 99.5766 28.68 98.8166 29.56C98.0566 30.44 96.9966 30.88 95.6366 30.88C94.7566 30.88 94.1566 30.68 93.8366 30.28C93.5566 29.84 93.3366 29.22 93.1766 28.42C93.0566 27.9 92.9366 27.52 92.8166 27.28C92.6966 27.04 92.4766 26.92 92.1566 26.92C91.3166 26.92 90.5966 27.1 89.9966 27.46C89.4366 27.78 88.6966 28.36 87.7766 29.2L82.9766 52H74.3366L80.6966 22ZM105.115 52.36C103.195 52.36 101.635 51.76 100.435 50.56C99.2752 49.36 98.6952 47.56 98.6952 45.16C98.6952 44.16 98.8552 42.86 99.1752 41.26L102.775 24.4H100.795L101.275 22H103.255L105.055 13.72L113.935 12.52L111.895 22H115.495L115.015 24.4H111.415L107.575 42.4C107.415 43 107.335 43.64 107.335 44.32C107.335 45.12 107.515 45.7 107.875 46.06C108.275 46.38 108.915 46.54 109.795 46.54C110.955 46.54 112.035 46.06 113.035 45.1C114.035 44.1 114.755 42.82 115.195 41.26H117.715C116.235 45.58 114.335 48.52 112.015 50.08C109.695 51.6 107.395 52.36 105.115 52.36ZM124.531 67C122.651 67 120.991 66.38 119.551 65.14C118.151 63.94 117.451 62.4 117.451 60.52C117.451 58.76 117.891 57.32 118.771 56.2C119.651 55.08 120.791 54.2 122.191 53.56C123.591 52.92 125.471 52.24 127.831 51.52L128.431 48.88C126.391 51.2 123.951 52.36 121.111 52.36C119.191 52.36 117.631 51.76 116.431 50.56C115.271 49.36 114.691 47.56 114.691 45.16C114.691 44.16 114.851 42.86 115.171 41.26L119.251 22H127.891L123.571 42.4C123.451 42.88 123.391 43.38 123.391 43.9C123.391 45.66 123.991 46.54 125.191 46.54C126.311 46.54 127.271 46.08 128.071 45.16C128.871 44.2 129.511 42.9 129.991 41.26L134.071 22H142.771L135.451 56.8C134.651 60.64 133.231 63.3 131.191 64.78C129.191 66.26 126.971 67 124.531 67ZM123.151 61.66C123.871 61.66 124.551 61.28 125.191 60.52C125.831 59.8 126.331 58.62 126.691 56.98L127.411 53.44C125.291 54.16 123.651 55 122.491 55.96C121.331 56.92 120.751 58.16 120.751 59.68C120.751 60.16 120.991 60.6 121.471 61C121.951 61.44 122.511 61.66 123.151 61.66ZM159.989 52.36C156.629 52.36 153.989 51.4 152.069 49.48C150.189 47.56 149.249 44.5 149.249 40.3C149.249 36.74 149.889 32.74 151.169 28.3C152.449 23.86 154.309 20.06 156.749 16.9C159.229 13.74 162.149 12.16 165.509 12.16C166.709 12.16 167.749 12.32 168.629 12.64C166.869 13.68 165.169 15.82 163.529 19.06C161.929 22.3 160.629 25.92 159.629 29.92C158.629 33.92 158.129 37.46 158.129 40.54C158.129 42.7 158.409 44.4 158.969 45.64C159.529 46.88 160.409 47.5 161.609 47.5C163.569 47.5 165.509 46.1 167.429 43.3C169.389 40.46 170.989 36.9 172.229 32.62C173.509 28.34 174.149 24.22 174.149 20.26C174.149 17.78 173.929 15.8 173.489 14.32C173.089 12.8 172.329 11.66 171.209 10.9C170.089 10.14 168.509 9.76 166.469 9.76C163.389 9.76 160.529 10.4 157.889 11.68C155.249 12.92 153.129 14.72 151.529 17.08C149.969 19.4 149.189 22.1 149.189 25.18C149.189 26.26 149.289 27.06 149.489 27.58C149.689 28.06 149.789 28.34 149.789 28.42C147.789 28.42 146.269 28.02 145.229 27.22C144.229 26.42 143.729 25.14 143.729 23.38C143.729 20.62 144.849 17.98 147.089 15.46C149.369 12.94 152.369 10.9 156.089 9.34C159.849 7.78 163.789 7 167.909 7C172.909 7 176.529 8.36 178.769 11.08C181.009 13.8 182.129 17.56 182.129 22.36C182.129 26.64 181.329 31.1 179.729 35.74C178.129 40.38 175.649 44.32 172.289 47.56C168.969 50.76 164.869 52.36 159.989 52.36ZM177.271 67C175.391 67 173.751 66.38 172.351 65.14C170.911 63.94 170.191 62.4 170.191 60.52C170.191 58.8 170.631 57.38 171.511 56.26C172.391 55.14 173.531 54.24 174.931 53.56C176.331 52.92 178.191 52.24 180.511 51.52L187.771 17.26C188.571 13.42 189.971 10.76 191.971 9.28C194.011 7.8 196.251 7.06 198.691 7.06C200.571 7.06 202.211 7.68 203.611 8.92C205.051 10.12 205.771 11.66 205.771 13.54C205.771 14.46 205.711 15.28 205.591 16H202.771C202.851 15.12 202.891 14.58 202.891 14.38C202.891 13.74 202.671 13.24 202.231 12.88C201.791 12.52 201.251 12.34 200.611 12.34C199.771 12.34 198.951 12.72 198.151 13.48C197.351 14.2 196.771 15.46 196.411 17.26L195.391 22H199.771L199.351 24.4H194.911L188.011 56.8C187.211 60.68 185.831 63.34 183.871 64.78C181.911 66.26 179.711 67 177.271 67ZM175.891 61.66C177.491 61.66 178.631 60.1 179.311 56.98L180.091 53.5C177.971 54.22 176.351 55.04 175.231 55.96C174.071 56.92 173.491 58.16 173.491 59.68C173.491 60.16 173.731 60.6 174.211 61C174.691 61.44 175.251 61.66 175.891 61.66Z"/>
</mask>
<path d="M24.44 13.84L33.32 12.64L29.06 32.68C30.98 32.52 32.74 31.68 34.34 30.16C35.98 28.64 37.26 26.76 38.18 24.52C39.1 22.28 39.56 20.08 39.56 17.92C39.56 15.52 38.94 13.56 37.7 12.04C36.46 10.52 34.6 9.76 32.12 9.76C27.24 9.76 23.42 11.04 20.66 13.6C17.94 16.16 16.58 19.74 16.58 24.34C16.58 25.82 16.72 26.86 17 27.46C17.28 28.02 17.42 28.34 17.42 28.42C15.26 28.42 13.64 27.98 12.56 27.1C11.52 26.18 11 24.68 11 22.6C11 20.04 12.04 17.56 14.12 15.16C16.24 12.72 18.94 10.76 22.22 9.28C25.5 7.76 28.78 7 32.06 7C35.22 7 37.86 7.54 39.98 8.62C42.1 9.7 43.66 11.14 44.66 12.94C45.7 14.7 46.22 16.66 46.22 18.82C46.22 21.42 45.5 23.96 44.06 26.44C42.66 28.92 40.64 30.96 38 32.56C35.36 34.12 32.32 34.9 28.88 34.9H28.58L24.92 52H16.28L24.44 13.84ZM52.2345 52.36C49.9545 52.36 48.0545 51.58 46.5345 50.02C45.0145 48.46 44.2545 46.02 44.2545 42.7C44.2545 39.74 44.8345 36.64 45.9945 33.4C47.1945 30.12 48.9545 27.36 51.2745 25.12C53.6345 22.84 56.4345 21.7 59.6745 21.7C61.3145 21.7 62.5345 21.98 63.3345 22.54C64.1345 23.1 64.5345 23.84 64.5345 24.76V25.18L65.1945 22H73.8345L69.5145 42.4C69.3545 43 69.2745 43.64 69.2745 44.32C69.2745 46.04 70.0945 46.9 71.7345 46.9C72.8545 46.9 73.8145 46.38 74.6145 45.34C75.4545 44.3 76.1145 42.94 76.5945 41.26H79.1145C77.6345 45.58 75.7945 48.52 73.5945 50.08C71.4345 51.6 69.2545 52.36 67.0545 52.36C65.3745 52.36 64.0145 51.9 62.9745 50.98C61.9745 50.02 61.3745 48.64 61.1745 46.84C60.0145 48.48 58.7145 49.82 57.2745 50.86C55.8745 51.86 54.1945 52.36 52.2345 52.36ZM56.1345 46.54C57.1345 46.54 58.1145 46.08 59.0745 45.16C60.0745 44.2 60.7545 42.9 61.1145 41.26L63.9945 27.7C63.9945 27.18 63.7945 26.68 63.3945 26.2C62.9945 25.68 62.3745 25.42 61.5345 25.42C59.9345 25.42 58.4945 26.36 57.2145 28.24C55.9345 30.08 54.9345 32.32 54.2145 34.96C53.4945 37.56 53.1345 39.86 53.1345 41.86C53.1345 43.86 53.4145 45.14 53.9745 45.7C54.5745 46.26 55.2945 46.54 56.1345 46.54ZM80.6966 22H89.3366L88.5566 25.72C89.9166 24.52 91.1366 23.6 92.2166 22.96C93.3366 22.32 94.5366 22 95.8166 22C97.0966 22 98.0966 22.44 98.8166 23.32C99.5766 24.2 99.9566 25.26 99.9566 26.5C99.9566 27.66 99.5766 28.68 98.8166 29.56C98.0566 30.44 96.9966 30.88 95.6366 30.88C94.7566 30.88 94.1566 30.68 93.8366 30.28C93.5566 29.84 93.3366 29.22 93.1766 28.42C93.0566 27.9 92.9366 27.52 92.8166 27.28C92.6966 27.04 92.4766 26.92 92.1566 26.92C91.3166 26.92 90.5966 27.1 89.9966 27.46C89.4366 27.78 88.6966 28.36 87.7766 29.2L82.9766 52H74.3366L80.6966 22ZM105.115 52.36C103.195 52.36 101.635 51.76 100.435 50.56C99.2752 49.36 98.6952 47.56 98.6952 45.16C98.6952 44.16 98.8552 42.86 99.1752 41.26L102.775 24.4H100.795L101.275 22H103.255L105.055 13.72L113.935 12.52L111.895 22H115.495L115.015 24.4H111.415L107.575 42.4C107.415 43 107.335 43.64 107.335 44.32C107.335 45.12 107.515 45.7 107.875 46.06C108.275 46.38 108.915 46.54 109.795 46.54C110.955 46.54 112.035 46.06 113.035 45.1C114.035 44.1 114.755 42.82 115.195 41.26H117.715C116.235 45.58 114.335 48.52 112.015 50.08C109.695 51.6 107.395 52.36 105.115 52.36ZM124.531 67C122.651 67 120.991 66.38 119.551 65.14C118.151 63.94 117.451 62.4 117.451 60.52C117.451 58.76 117.891 57.32 118.771 56.2C119.651 55.08 120.791 54.2 122.191 53.56C123.591 52.92 125.471 52.24 127.831 51.52L128.431 48.88C126.391 51.2 123.951 52.36 121.111 52.36C119.191 52.36 117.631 51.76 116.431 50.56C115.271 49.36 114.691 47.56 114.691 45.16C114.691 44.16 114.851 42.86 115.171 41.26L119.251 22H127.891L123.571 42.4C123.451 42.88 123.391 43.38 123.391 43.9C123.391 45.66 123.991 46.54 125.191 46.54C126.311 46.54 127.271 46.08 128.071 45.16C128.871 44.2 129.511 42.9 129.991 41.26L134.071 22H142.771L135.451 56.8C134.651 60.64 133.231 63.3 131.191 64.78C129.191 66.26 126.971 67 124.531 67ZM123.151 61.66C123.871 61.66 124.551 61.28 125.191 60.52C125.831 59.8 126.331 58.62 126.691 56.98L127.411 53.44C125.291 54.16 123.651 55 122.491 55.96C121.331 56.92 120.751 58.16 120.751 59.68C120.751 60.16 120.991 60.6 121.471 61C121.951 61.44 122.511 61.66 123.151 61.66ZM159.989 52.36C156.629 52.36 153.989 51.4 152.069 49.48C150.189 47.56 149.249 44.5 149.249 40.3C149.249 36.74 149.889 32.74 151.169 28.3C152.449 23.86 154.309 20.06 156.749 16.9C159.229 13.74 162.149 12.16 165.509 12.16C166.709 12.16 167.749 12.32 168.629 12.64C166.869 13.68 165.169 15.82 163.529 19.06C161.929 22.3 160.629 25.92 159.629 29.92C158.629 33.92 158.129 37.46 158.129 40.54C158.129 42.7 158.409 44.4 158.969 45.64C159.529 46.88 160.409 47.5 161.609 47.5C163.569 47.5 165.509 46.1 167.429 43.3C169.389 40.46 170.989 36.9 172.229 32.62C173.509 28.34 174.149 24.22 174.149 20.26C174.149 17.78 173.929 15.8 173.489 14.32C173.089 12.8 172.329 11.66 171.209 10.9C170.089 10.14 168.509 9.76 166.469 9.76C163.389 9.76 160.529 10.4 157.889 11.68C155.249 12.92 153.129 14.72 151.529 17.08C149.969 19.4 149.189 22.1 149.189 25.18C149.189 26.26 149.289 27.06 149.489 27.58C149.689 28.06 149.789 28.34 149.789 28.42C147.789 28.42 146.269 28.02 145.229 27.22C144.229 26.42 143.729 25.14 143.729 23.38C143.729 20.62 144.849 17.98 147.089 15.46C149.369 12.94 152.369 10.9 156.089 9.34C159.849 7.78 163.789 7 167.909 7C172.909 7 176.529 8.36 178.769 11.08C181.009 13.8 182.129 17.56 182.129 22.36C182.129 26.64 181.329 31.1 179.729 35.74C178.129 40.38 175.649 44.32 172.289 47.56C168.969 50.76 164.869 52.36 159.989 52.36ZM177.271 67C175.391 67 173.751 66.38 172.351 65.14C170.911 63.94 170.191 62.4 170.191 60.52C170.191 58.8 170.631 57.38 171.511 56.26C172.391 55.14 173.531 54.24 174.931 53.56C176.331 52.92 178.191 52.24 180.511 51.52L187.771 17.26C188.571 13.42 189.971 10.76 191.971 9.28C194.011 7.8 196.251 7.06 198.691 7.06C200.571 7.06 202.211 7.68 203.611 8.92C205.051 10.12 205.771 11.66 205.771 13.54C205.771 14.46 205.711 15.28 205.591 16H202.771C202.851 15.12 202.891 14.58 202.891 14.38C202.891 13.74 202.671 13.24 202.231 12.88C201.791 12.52 201.251 12.34 200.611 12.34C199.771 12.34 198.951 12.72 198.151 13.48C197.351 14.2 196.771 15.46 196.411 17.26L195.391 22H199.771L199.351 24.4H194.911L188.011 56.8C187.211 60.68 185.831 63.34 183.871 64.78C181.911 66.26 179.711 67 177.271 67ZM175.891 61.66C177.491 61.66 178.631 60.1 179.311 56.98L180.091 53.5C177.971 54.22 176.351 55.04 175.231 55.96C174.071 56.92 173.491 58.16 173.491 59.68C173.491 60.16 173.731 60.6 174.211 61C174.691 61.44 175.251 61.66 175.891 61.66Z" fill="white"/>
<path d="M24.44 13.84L24.3061 12.849L23.6092 12.9432L23.4621 13.6309L24.44 13.84ZM33.32 12.64L34.2981 12.8479L34.5934 11.4588L33.1861 11.649L33.32 12.64ZM29.06 32.68L28.0819 32.4721L27.8021 33.7883L29.143 33.6765L29.06 32.68ZM34.34 30.16L33.6602 29.4265L33.6513 29.435L34.34 30.16ZM38.18 24.52L37.255 24.1401L38.18 24.52ZM37.7 12.04L36.9251 12.6721L37.7 12.04ZM20.66 13.6L19.9799 12.8668L19.9746 12.8718L20.66 13.6ZM17 27.46L16.0938 27.8829L16.0995 27.8951L16.1056 27.9072L17 27.46ZM17.42 28.42V29.42H18.42V28.42H17.42ZM12.56 27.1L11.8974 27.849L11.9126 27.8624L11.9283 27.8752L12.56 27.1ZM14.12 15.16L13.3651 14.5041L13.3643 14.5051L14.12 15.16ZM22.22 9.28L22.6313 10.1916L22.6405 10.1873L22.22 9.28ZM39.98 8.62L39.5261 9.51104V9.51104L39.98 8.62ZM44.66 12.94L43.7858 13.4256L43.7923 13.4373L43.7991 13.4487L44.66 12.94ZM44.06 26.44L43.1951 25.9378L43.1892 25.9484L44.06 26.44ZM38 32.56L38.5088 33.421L38.5183 33.4152L38 32.56ZM28.58 34.9V33.9H27.7714L27.6021 34.6907L28.58 34.9ZM24.92 52V53H25.7286L25.8979 52.2093L24.92 52ZM16.28 52L15.3021 51.7909L15.0436 53H16.28V52ZM46.5345 50.02L45.8183 50.7179L46.5345 50.02ZM45.9945 33.4L45.0554 33.0564L45.0531 33.0629L45.9945 33.4ZM51.2745 25.12L51.9691 25.8394L51.9693 25.8392L51.2745 25.12ZM63.3345 22.54L63.908 21.7208L63.3345 22.54ZM64.5345 25.18H63.5345L65.5137 25.3832L64.5345 25.18ZM65.1945 22V21H64.3808L64.2154 21.7968L65.1945 22ZM73.8345 22L74.8128 22.2072L75.0685 21H73.8345V22ZM69.5145 42.4L70.4808 42.6577L70.4875 42.6326L70.4928 42.6072L69.5145 42.4ZM74.6145 45.34L73.8366 44.7117L73.8291 44.7209L73.8219 44.7303L74.6145 45.34ZM76.5945 41.26V40.26H75.8402L75.633 40.9853L76.5945 41.26ZM79.1145 41.26L80.0606 41.5841L80.5142 40.26H79.1145V41.26ZM73.5945 50.08L74.17 50.8978L74.173 50.8957L73.5945 50.08ZM62.9745 50.98L62.282 51.7014L62.2967 51.7155L62.312 51.729L62.9745 50.98ZM61.1745 46.84L62.1684 46.7296L61.8778 44.114L60.3581 46.2625L61.1745 46.84ZM57.2745 50.86L57.8558 51.6737L57.86 51.6707L57.2745 50.86ZM59.0745 45.16L59.7664 45.882L59.7671 45.8814L59.0745 45.16ZM61.1145 41.26L62.0913 41.4744L62.0927 41.4678L61.1145 41.26ZM63.9945 27.7L64.9727 27.9078L64.9945 27.805V27.7H63.9945ZM63.3945 26.2L62.6019 26.8097L62.6138 26.8252L62.6263 26.8402L63.3945 26.2ZM57.2145 28.24L58.0355 28.8111L58.0411 28.8028L57.2145 28.24ZM54.2145 34.96L55.1783 35.2269L55.1793 35.2231L54.2145 34.96ZM53.9745 45.7L53.2674 46.4071L53.2796 46.4193L53.2922 46.4311L53.9745 45.7ZM80.6966 22V21H79.8863L79.7183 21.7926L80.6966 22ZM89.3366 22L90.3153 22.2052L90.568 21H89.3366V22ZM88.5566 25.72L87.5778 25.5148L86.9598 28.4626L89.2182 26.4698L88.5566 25.72ZM92.2166 22.96L91.7204 22.0918L91.7136 22.0957L91.7068 22.0997L92.2166 22.96ZM98.8166 23.32L98.0426 23.9532L98.051 23.9635L98.0597 23.9736L98.8166 23.32ZM98.8166 29.56L98.0597 28.9064L98.8166 29.56ZM93.8366 30.28L92.9929 30.8169L93.0219 30.8625L93.0557 30.9047L93.8366 30.28ZM93.1766 28.42L94.1571 28.2239L94.1543 28.2095L94.151 28.1951L93.1766 28.42ZM92.8166 27.28L93.711 26.8328V26.8328L92.8166 27.28ZM89.9966 27.46L90.4927 28.3282L90.5019 28.323L90.5111 28.3175L89.9966 27.46ZM87.7766 29.2L87.1023 28.4615L86.8644 28.6787L86.798 28.994L87.7766 29.2ZM82.9766 52V53H83.788L83.9551 52.206L82.9766 52ZM74.3366 52L73.3583 51.7926L73.1023 53H74.3366V52ZM100.435 50.56L99.7162 51.255L99.7221 51.2611L99.7281 51.2671L100.435 50.56ZM99.1752 41.26L98.1971 41.0512L98.1946 41.0639L99.1752 41.26ZM102.775 24.4L103.753 24.6088L104.011 23.4H102.775V24.4ZM100.795 24.4L99.8146 24.2039L99.5754 25.4H100.795V24.4ZM101.275 22V21H100.455L100.295 21.8039L101.275 22ZM103.255 22V23H104.061L104.232 22.2124L103.255 22ZM105.055 13.72L104.921 12.729L104.227 12.8228L104.078 13.5076L105.055 13.72ZM113.935 12.52L114.913 12.7304L115.212 11.3383L113.801 11.529L113.935 12.52ZM111.895 22L110.918 21.7896L110.657 23H111.895V22ZM115.495 22L116.476 22.1961L116.715 21H115.495V22ZM115.015 24.4V25.4H115.835L115.996 24.5961L115.015 24.4ZM111.415 24.4V23.4H110.606L110.437 24.1914L111.415 24.4ZM107.575 42.4L108.541 42.6577L108.548 42.6333L108.553 42.6086L107.575 42.4ZM107.875 46.06L107.168 46.7671L107.207 46.8063L107.25 46.8409L107.875 46.06ZM113.035 45.1L113.728 45.8214L113.735 45.8143L113.742 45.8071L113.035 45.1ZM115.195 41.26V40.26H114.438L114.233 40.9885L115.195 41.26ZM117.715 41.26L118.661 41.5841L119.115 40.26H117.715V41.26ZM112.015 50.08L112.563 50.9165L112.573 50.9098L112.015 50.08ZM119.551 65.14L120.204 64.3822L120.202 64.3807L119.551 65.14ZM118.771 56.2L117.985 55.5822L118.771 56.2ZM122.191 53.56L121.775 52.6505L122.191 53.56ZM127.831 51.52L128.123 52.4765L128.678 52.3072L128.806 51.7416L127.831 51.52ZM128.431 48.88L129.406 49.1016L127.68 48.2197L128.431 48.88ZM116.431 50.56L115.712 51.255L115.718 51.2611L115.724 51.2671L116.431 50.56ZM115.171 41.26L114.193 41.0527L114.191 41.0639L115.171 41.26ZM119.251 22V21H118.441L118.273 21.7928L119.251 22ZM127.891 22L128.87 22.2072L129.125 21H127.891V22ZM123.571 42.4L124.541 42.6425L124.546 42.6249L124.55 42.6072L123.571 42.4ZM128.071 45.16L128.826 45.8162L128.833 45.8083L128.839 45.8002L128.071 45.16ZM129.991 41.26L130.951 41.5409L130.962 41.5044L130.97 41.4672L129.991 41.26ZM134.071 22V21H133.261L133.093 21.7928L134.071 22ZM142.771 22L143.75 22.2058L144.003 21H142.771V22ZM135.451 56.8L134.473 56.5942L134.472 56.5961L135.451 56.8ZM131.191 64.78L130.604 63.9705L130.596 63.9762L131.191 64.78ZM125.191 60.52L124.444 59.8556L124.435 59.8656L124.426 59.8759L125.191 60.52ZM126.691 56.98L127.668 57.1944L127.67 57.1869L127.671 57.1793L126.691 56.98ZM127.411 53.44L128.391 53.6393L128.738 51.9333L127.09 52.4931L127.411 53.44ZM122.491 55.96L121.854 55.1896L122.491 55.96ZM121.471 61L122.147 60.2629L122.13 60.2469L122.111 60.2318L121.471 61ZM152.069 49.48L151.354 50.1797L151.362 50.1871L152.069 49.48ZM151.169 28.3L152.13 28.577L151.169 28.3ZM156.749 16.9L155.962 16.2826L155.957 16.2888L156.749 16.9ZM168.629 12.64L169.138 13.5009L170.96 12.4238L168.971 11.7002L168.629 12.64ZM163.529 19.06L162.637 18.6084L162.632 18.6172L163.529 19.06ZM159.629 29.92L158.659 29.6775L159.629 29.92ZM167.429 43.3L166.606 42.732L166.604 42.7345L167.429 43.3ZM172.229 32.62L171.271 32.3335L171.268 32.3417L172.229 32.62ZM173.489 14.32L172.522 14.5745L172.526 14.5898L172.53 14.605L173.489 14.32ZM171.209 10.9L171.77 10.0725V10.0725L171.209 10.9ZM157.889 11.68L158.314 12.5852L158.325 12.5798L157.889 11.68ZM151.529 17.08L150.701 16.5188L150.699 16.522L151.529 17.08ZM149.489 27.58L148.556 27.939L148.561 27.9519L148.566 27.9646L149.489 27.58ZM149.789 28.42V29.42H150.789V28.42H149.789ZM145.229 27.22L144.604 28.0009L144.612 28.0068L144.619 28.0126L145.229 27.22ZM147.089 15.46L146.347 14.7891L146.341 14.7956L147.089 15.46ZM156.089 9.34L155.706 8.41634L155.702 8.41781L156.089 9.34ZM179.729 35.74L180.674 36.066L179.729 35.74ZM172.289 47.56L172.983 48.28L172.983 48.2798L172.289 47.56ZM172.351 65.14L173.014 64.3914L173.003 64.3814L172.991 64.3718L172.351 65.14ZM171.511 56.26L170.725 55.6422L171.511 56.26ZM174.931 53.56L174.515 52.6505L174.505 52.6554L174.494 52.6605L174.931 53.56ZM180.511 51.52L180.808 52.4751L181.368 52.3012L181.49 51.7273L180.511 51.52ZM187.771 17.26L188.75 17.4673L188.75 17.464L187.771 17.26ZM191.971 9.28L191.384 8.47054L191.376 8.47616L191.971 9.28ZM203.611 8.92L202.948 9.66859L202.959 9.67858L202.971 9.68822L203.611 8.92ZM205.591 16V17H206.438L206.578 16.1644L205.591 16ZM202.771 16L201.775 15.9095L201.676 17H202.771V16ZM202.231 12.88L201.598 13.654V13.654L202.231 12.88ZM198.151 13.48L198.82 14.2233L198.83 14.2143L198.84 14.205L198.151 13.48ZM196.411 17.26L197.389 17.4704L197.39 17.4633L197.392 17.4561L196.411 17.26ZM195.391 22L194.414 21.7896L194.153 23H195.391V22ZM199.771 22L200.756 22.1724L200.961 21H199.771V22ZM199.351 24.4V25.4H200.191L200.336 24.5724L199.351 24.4ZM194.911 24.4V23.4H194.102L193.933 24.1917L194.911 24.4ZM188.011 56.8L187.033 56.5917L187.032 56.5981L188.011 56.8ZM183.871 64.78L183.279 63.9741L183.269 63.982L183.871 64.78ZM179.311 56.98L178.335 56.7613L178.334 56.7671L179.311 56.98ZM180.091 53.5L181.067 53.7187L181.457 51.9802L179.77 52.5531L180.091 53.5ZM175.231 55.96L174.597 55.1873L174.594 55.1896L175.231 55.96ZM174.211 61L174.887 60.2629L174.87 60.2469L174.851 60.2318L174.211 61ZM24.5739 14.831L33.4539 13.631L33.1861 11.649L24.3061 12.849L24.5739 14.831ZM32.3419 12.4321L28.0819 32.4721L30.0381 32.8879L34.2981 12.8479L32.3419 12.4321ZM29.143 33.6765C31.3224 33.4949 33.2889 32.5378 35.0287 30.885L33.6513 29.435C32.1911 30.8222 30.6376 31.5451 28.977 31.6835L29.143 33.6765ZM35.0198 30.8934C36.7748 29.2668 38.1345 27.2629 39.105 24.8999L37.255 24.1401C36.3855 26.2571 35.1852 28.0132 33.6602 29.4266L35.0198 30.8934ZM39.105 24.8999C40.0685 22.5539 40.56 20.2252 40.56 17.92H38.56C38.56 19.9348 38.1315 22.0061 37.255 24.1401L39.105 24.8999ZM40.56 17.92C40.56 15.3428 39.8909 13.1436 38.4749 11.4079L36.9251 12.6721C37.9891 13.9764 38.56 15.6972 38.56 17.92H40.56ZM38.4749 11.4079C36.9963 9.5955 34.814 8.76 32.12 8.76V10.76C34.386 10.76 35.9237 11.4445 36.9251 12.6721L38.4749 11.4079ZM32.12 8.76C27.0649 8.76 22.9746 10.0892 19.98 12.8668L21.34 14.3332C23.8654 11.9908 27.4151 10.76 32.12 10.76V8.76ZM19.9746 12.8718C17.0089 15.663 15.58 19.5327 15.58 24.34H17.58C17.58 19.9473 18.8711 16.657 21.3454 14.3282L19.9746 12.8718ZM15.58 24.34C15.58 25.8289 15.7126 27.0659 16.0938 27.8829L17.9062 27.0371C17.7274 26.6541 17.58 25.8111 17.58 24.34H15.58ZM16.1056 27.9072C16.2429 28.1818 16.339 28.3841 16.3988 28.5208C16.4293 28.5904 16.4443 28.6294 16.4499 28.6454C16.4527 28.6535 16.4489 28.6437 16.4433 28.6213C16.441 28.612 16.42 28.5324 16.42 28.42H18.42C18.42 28.2073 18.3503 28.021 18.3376 27.9847C18.3082 27.9006 18.2707 27.8096 18.2312 27.7192C18.151 27.5359 18.0371 27.2982 17.8944 27.0128L16.1056 27.9072ZM17.42 27.42C15.3701 27.42 14.0183 26.9983 13.1917 26.3248L11.9283 27.8752C13.2617 28.9617 15.1499 29.42 17.42 29.42V27.42ZM13.2226 26.351C12.4854 25.6989 12 24.5374 12 22.6H10C10 24.8226 10.5546 26.6611 11.8974 27.849L13.2226 26.351ZM12 22.6C12 20.3345 12.914 18.0785 14.8757 15.8149L13.3643 14.5051C11.166 17.0415 10 19.7455 10 22.6H12ZM14.8749 15.8159C16.8899 13.4967 19.4679 11.6189 22.6313 10.1915L21.8087 8.3685C18.4121 9.90113 15.5901 11.9433 13.3651 14.5041L14.8749 15.8159ZM22.6405 10.1873C25.8023 8.72207 28.9395 8 32.06 8V6C28.6205 6 25.1977 6.79793 21.7995 8.37269L22.6405 10.1873ZM32.06 8C35.1118 8 37.5851 8.52223 39.5261 9.51104L40.4339 7.72896C38.1349 6.55777 35.3282 6 32.06 6V8ZM39.5261 9.51104C41.4971 10.5152 42.8968 11.8254 43.7858 13.4256L45.5342 12.4544C44.4232 10.4546 42.7029 8.88485 40.4339 7.72896L39.5261 9.51104ZM43.7991 13.4487C44.7428 15.0458 45.22 16.8284 45.22 18.82H47.22C47.22 16.4916 46.6572 14.3542 45.5209 12.4313L43.7991 13.4487ZM45.22 18.82C45.22 21.2259 44.556 23.5943 43.1952 25.9379L44.9248 26.9421C46.444 24.3257 47.22 21.6141 47.22 18.82H45.22ZM43.1892 25.9484C41.8805 28.2666 39.9876 30.1861 37.4817 31.7048L38.5183 33.4152C41.2924 31.7339 43.4395 29.5734 44.9308 26.9316L43.1892 25.9484ZM37.4913 31.6991C35.0235 33.1573 32.1633 33.9 28.88 33.9V35.9C32.4767 35.9 35.6965 35.0827 38.5087 33.4209L37.4913 31.6991ZM28.88 33.9H28.58V35.9H28.88V33.9ZM27.6021 34.6907L23.9421 51.7907L25.8979 52.2093L29.5579 35.1093L27.6021 34.6907ZM24.92 51H16.28V53H24.92V51ZM17.2579 52.2091L25.4179 14.0491L23.4621 13.6309L15.3021 51.7909L17.2579 52.2091ZM52.2345 51.36C50.2101 51.36 48.5729 50.6791 47.2508 49.3221L45.8183 50.7179C47.5362 52.4809 49.6989 53.36 52.2345 53.36V51.36ZM47.2508 49.3221C45.9885 48.0266 45.2545 45.893 45.2545 42.7H43.2545C43.2545 46.147 44.0406 48.8934 45.8183 50.7179L47.2508 49.3221ZM45.2545 42.7C45.2545 39.8719 45.8086 36.8862 46.936 33.7371L45.0531 33.0629C43.8605 36.3938 43.2545 39.6081 43.2545 42.7H45.2545ZM46.9337 33.7436C48.086 30.5937 49.7669 27.9657 51.9691 25.8394L50.5799 24.4006C48.1422 26.7543 46.303 29.6463 45.0554 33.0564L46.9337 33.7436ZM51.9693 25.8392C54.1456 23.7367 56.6975 22.7 59.6745 22.7V20.7C56.1716 20.7 53.1235 21.9433 50.5797 24.4008L51.9693 25.8392ZM59.6745 22.7C61.2349 22.7 62.2089 22.9727 62.7611 23.3592L63.908 21.7208C62.8602 20.9873 61.3942 20.7 59.6745 20.7V22.7ZM62.7611 23.3592C63.3131 23.7457 63.5345 24.1893 63.5345 24.76H65.5345C65.5345 23.4907 64.9559 22.4543 63.908 21.7208L62.7611 23.3592ZM63.5345 24.76V25.18H65.5345V24.76H63.5345ZM65.5137 25.3832L66.1737 22.2032L64.2154 21.7968L63.5554 24.9768L65.5137 25.3832ZM65.1945 23H73.8345V21H65.1945V23ZM72.8562 21.7928L68.5362 42.1928L70.4928 42.6072L74.8128 22.2072L72.8562 21.7928ZM68.5483 42.1423C68.3639 42.8339 68.2745 43.5612 68.2745 44.32H70.2745C70.2745 43.7188 70.3452 43.1661 70.4808 42.6577L68.5483 42.1423ZM68.2745 44.32C68.2745 45.3226 68.5127 46.2601 69.1658 46.9451C69.8274 47.6389 70.7479 47.9 71.7345 47.9V45.9C71.0811 45.9 70.7717 45.7311 70.6133 45.5649C70.4463 45.3899 70.2745 45.0374 70.2745 44.32H68.2745ZM71.7345 47.9C73.2205 47.9 74.4545 47.1882 75.4072 45.9497L73.8219 44.7303C73.1746 45.5718 72.4886 45.9 71.7345 45.9V47.9ZM75.3925 45.9683C76.3383 44.7973 77.05 43.306 77.5561 41.5347L75.633 40.9853C75.1791 42.574 74.5707 43.8027 73.8366 44.7117L75.3925 45.9683ZM76.5945 42.26H79.1145V40.26H76.5945V42.26ZM78.1685 40.9359C76.7141 45.1813 74.9627 47.884 73.0161 49.2643L74.173 50.8957C76.6264 49.156 78.555 45.9787 80.0606 41.5841L78.1685 40.9359ZM73.019 49.2622C70.993 50.6879 69.01 51.36 67.0545 51.36V53.36C69.4991 53.36 71.876 52.5121 74.17 50.8978L73.019 49.2622ZM67.0545 51.36C65.5649 51.36 64.4577 50.9569 63.6371 50.231L62.312 51.729C63.5714 52.8431 65.1842 53.36 67.0545 53.36V51.36ZM63.6671 50.2586C62.8819 49.5048 62.3506 48.3692 62.1684 46.7296L60.1806 46.9504C60.3985 48.9108 61.0672 50.5352 62.282 51.7014L63.6671 50.2586ZM60.3581 46.2625C59.2535 47.8242 58.0289 49.0817 56.689 50.0493L57.86 51.6707C59.4002 50.5584 60.7756 49.1358 61.9909 47.4175L60.3581 46.2625ZM56.6933 50.0463C55.4859 50.9087 54.0163 51.36 52.2345 51.36V53.36C54.3728 53.36 56.2632 52.8113 57.8558 51.6737L56.6933 50.0463ZM56.1345 47.54C57.4682 47.54 58.6833 46.92 59.7664 45.882L58.3826 44.438C57.5457 45.24 56.8009 45.54 56.1345 45.54V47.54ZM59.7671 45.8814C60.9377 44.7576 61.6979 43.2665 62.0913 41.4744L60.1378 41.0456C59.8112 42.5336 59.2114 43.6424 58.382 44.4386L59.7671 45.8814ZM62.0927 41.4678L64.9727 27.9078L63.0163 27.4922L60.1364 41.0522L62.0927 41.4678ZM64.9945 27.7C64.9945 26.9012 64.6811 26.1818 64.1628 25.5598L62.6263 26.8402C62.908 27.1782 62.9945 27.4588 62.9945 27.7H64.9945ZM64.1872 25.5903C63.5465 24.7574 62.5897 24.42 61.5345 24.42V26.42C62.1594 26.42 62.4426 26.6026 62.6019 26.8097L64.1872 25.5903ZM61.5345 24.42C59.4774 24.42 57.7696 25.6479 56.3879 27.6772L58.0411 28.8028C59.2195 27.0721 60.3917 26.42 61.5345 26.42V24.42ZM56.3936 27.6689C55.0359 29.6207 53.9934 31.9703 53.2498 34.6969L55.1793 35.2231C55.8757 32.6697 56.8332 30.5393 58.0354 28.8111L56.3936 27.6689ZM53.2508 34.6931C52.5145 37.3519 52.1345 39.7447 52.1345 41.86H54.1345C54.1345 39.9753 54.4745 37.7681 55.1783 35.2269L53.2508 34.6931ZM52.1345 41.86C52.1345 42.8985 52.2065 43.7971 52.3676 44.5337C52.5245 45.2508 52.7901 45.9298 53.2674 46.4071L54.6816 44.9929C54.599 44.9102 54.4446 44.6693 54.3214 44.1063C54.2026 43.5629 54.1345 42.8215 54.1345 41.86H52.1345ZM53.2922 46.4311C54.0821 47.1683 55.0478 47.54 56.1345 47.54V45.54C55.5412 45.54 55.0669 45.3517 54.6568 44.9689L53.2922 46.4311ZM80.6966 23H89.3366V21H80.6966V23ZM88.3578 21.7948L87.5778 25.5148L89.5353 25.9252L90.3153 22.2052L88.3578 21.7948ZM89.2182 26.4698C90.5499 25.2948 91.7183 24.4177 92.7264 23.8203L91.7068 22.0997C90.5548 22.7823 89.2832 23.7452 87.8949 24.9702L89.2182 26.4698ZM92.7127 23.8282C93.6828 23.2739 94.712 23 95.8166 23V21C94.3611 21 92.9903 21.3661 91.7204 22.0918L92.7127 23.8282ZM95.8166 23C96.8392 23 97.5379 23.3364 98.0426 23.9532L99.5905 22.6868C98.6552 21.5436 97.3539 21 95.8166 21V23ZM98.0597 23.9736C98.6519 24.6593 98.9566 25.4827 98.9566 26.5H100.957C100.957 25.0373 100.501 23.7407 99.5734 22.6664L98.0597 23.9736ZM98.9566 26.5C98.9566 27.4194 98.6633 28.2075 98.0597 28.9064L99.5734 30.2136C100.49 29.1525 100.957 27.9006 100.957 26.5H98.9566ZM98.0597 28.9064C97.5226 29.5283 96.7604 29.88 95.6366 29.88V31.88C97.2327 31.88 98.5905 31.3517 99.5734 30.2136L98.0597 28.9064ZM95.6366 29.88C94.8495 29.88 94.6466 29.6917 94.6174 29.6553L93.0557 30.9047C93.6665 31.6683 94.6636 31.88 95.6366 31.88V29.88ZM94.6802 29.7431C94.4931 29.4491 94.3051 28.9635 94.1571 28.2239L92.196 28.6161C92.3681 29.4765 92.62 30.2309 92.9929 30.8169L94.6802 29.7431ZM94.151 28.1951C94.027 27.6581 93.8861 27.1829 93.711 26.8328L91.9221 27.7272C91.9871 27.8571 92.0861 28.1419 92.2022 28.6449L94.151 28.1951ZM93.711 26.8328C93.5665 26.5438 93.3426 26.2969 93.0404 26.1321C92.7484 25.9728 92.4386 25.92 92.1566 25.92V27.92C92.1945 27.92 92.1548 27.9272 92.0827 27.8879C92.0466 27.8682 92.0113 27.8415 91.9808 27.8091C91.9507 27.7773 91.9323 27.7475 91.9221 27.7272L93.711 26.8328ZM92.1566 25.92C91.1718 25.92 90.2661 26.1321 89.4821 26.6025L90.5111 28.3175C90.9271 28.0679 91.4613 27.92 92.1566 27.92V25.92ZM89.5004 26.5918C88.842 26.968 88.0363 27.6087 87.1023 28.4615L88.4508 29.9385C89.3568 29.1113 90.0312 28.592 90.4927 28.3282L89.5004 26.5918ZM86.798 28.994L81.998 51.794L83.9551 52.206L88.7551 29.406L86.798 28.994ZM82.9766 51H74.3366V53H82.9766V51ZM75.3148 52.2074L81.6748 22.2074L79.7183 21.7926L73.3583 51.7926L75.3148 52.2074ZM105.115 51.36C103.422 51.36 102.129 50.8401 101.142 49.8529L99.7281 51.2671C101.141 52.6799 102.968 53.36 105.115 53.36V51.36ZM101.154 49.865C100.24 48.9196 99.6952 47.4142 99.6952 45.16H97.6952C97.6952 47.7058 98.31 49.8004 99.7162 51.255L101.154 49.865ZM99.6952 45.16C99.6952 44.2539 99.8417 43.0265 100.156 41.4561L98.1946 41.0639C97.8687 42.6935 97.6952 44.0661 97.6952 45.16H99.6952ZM100.153 41.4688L103.753 24.6088L101.797 24.1912L98.1972 41.0512L100.153 41.4688ZM102.775 23.4H100.795V25.4H102.775V23.4ZM101.776 24.5961L102.256 22.1961L100.295 21.8039L99.8146 24.2039L101.776 24.5961ZM101.275 23H103.255V21H101.275V23ZM104.232 22.2124L106.032 13.9324L104.078 13.5076L102.278 21.7876L104.232 22.2124ZM105.189 14.711L114.069 13.511L113.801 11.529L104.921 12.729L105.189 14.711ZM112.958 12.3096L110.918 21.7896L112.873 22.2104L114.913 12.7304L112.958 12.3096ZM111.895 23H115.495V21H111.895V23ZM114.515 21.8039L114.035 24.2039L115.996 24.5961L116.476 22.1961L114.515 21.8039ZM115.015 23.4H111.415V25.4H115.015V23.4ZM110.437 24.1914L106.597 42.1914L108.553 42.6086L112.393 24.6086L110.437 24.1914ZM106.609 42.1423C106.424 42.8339 106.335 43.5612 106.335 44.32H108.335C108.335 43.7188 108.406 43.1661 108.541 42.6577L106.609 42.1423ZM106.335 44.32C106.335 45.2383 106.537 46.1364 107.168 46.7671L108.582 45.3529C108.493 45.2636 108.335 45.0017 108.335 44.32H106.335ZM107.25 46.8409C107.916 47.3734 108.836 47.54 109.795 47.54V45.54C108.995 45.54 108.634 45.3866 108.5 45.2791L107.25 46.8409ZM109.795 47.54C111.262 47.54 112.58 46.923 113.728 45.8214L112.343 44.3786C111.49 45.197 110.648 45.54 109.795 45.54V47.54ZM113.742 45.8071C114.88 44.6694 115.678 43.2318 116.158 41.5315L114.233 40.9885C113.832 42.4082 113.19 43.5306 112.328 44.3929L113.742 45.8071ZM115.195 42.26H117.715V40.26H115.195V42.26ZM116.769 40.9359C115.319 45.1697 113.513 47.8676 111.457 49.2502L112.573 50.9098C115.157 49.1724 117.152 45.9903 118.661 41.5841L116.769 40.9359ZM111.467 49.2435C109.274 50.6801 107.162 51.36 105.115 51.36V53.36C107.628 53.36 110.116 52.5199 112.563 50.9165L111.467 49.2435ZM124.531 66C122.894 66 121.464 65.4678 120.204 64.3822L118.899 65.8978C120.518 67.2922 122.409 68 124.531 68V66ZM120.202 64.3807C119.029 63.375 118.451 62.1147 118.451 60.52H116.451C116.451 62.6854 117.274 64.505 118.9 65.8993L120.202 64.3807ZM118.451 60.52C118.451 58.93 118.846 57.7234 119.558 56.8178L117.985 55.5822C116.936 56.9167 116.451 58.59 116.451 60.52H118.451ZM119.558 56.8178C120.331 55.8332 121.34 55.0487 122.607 54.4695L121.775 52.6505C120.242 53.3513 118.971 54.3269 117.985 55.5822L119.558 56.8178ZM122.607 54.4695C123.95 53.8554 125.783 53.1903 128.123 52.4765L127.539 50.5635C125.159 51.2897 123.232 51.9846 121.775 52.6505L122.607 54.4695ZM128.806 51.7416L129.406 49.1016L127.456 48.6584L126.856 51.2984L128.806 51.7416ZM127.68 48.2197C125.811 50.3451 123.636 51.36 121.111 51.36V53.36C124.266 53.36 126.971 52.0549 129.182 49.5403L127.68 48.2197ZM121.111 51.36C119.418 51.36 118.126 50.8401 117.138 49.8529L115.724 51.2671C117.137 52.6799 118.964 53.36 121.111 53.36V51.36ZM117.15 49.865C116.236 48.9196 115.691 47.4142 115.691 45.16H113.691C113.691 47.7058 114.306 49.8004 115.712 51.255L117.15 49.865ZM115.691 45.16C115.691 44.2539 115.838 43.0265 116.152 41.4561L114.191 41.0639C113.865 42.6935 113.691 44.0661 113.691 45.16H115.691ZM116.15 41.4672L120.23 22.2072L118.273 21.7928L114.193 41.0528L116.15 41.4672ZM119.251 23H127.891V21H119.251V23ZM126.913 21.7928L122.593 42.1928L124.55 42.6072L128.87 22.2072L126.913 21.7928ZM122.601 42.1575C122.46 42.7207 122.391 43.3024 122.391 43.9H124.391C124.391 43.4576 124.442 43.0393 124.541 42.6425L122.601 42.1575ZM122.391 43.9C122.391 44.8624 122.55 45.7608 123.015 46.4433C123.527 47.1946 124.309 47.54 125.191 47.54V45.54C124.873 45.54 124.755 45.4454 124.667 45.3167C124.533 45.1192 124.391 44.6976 124.391 43.9H122.391ZM125.191 47.54C126.628 47.54 127.855 46.9328 128.826 45.8162L127.317 44.5038C126.688 45.2272 125.994 45.54 125.191 45.54V47.54ZM128.839 45.8002C129.753 44.7037 130.446 43.2671 130.951 41.5409L129.032 40.9791C128.577 42.5329 127.989 43.6963 127.303 44.5198L128.839 45.8002ZM130.97 41.4672L135.05 22.2072L133.093 21.7928L129.013 41.0528L130.97 41.4672ZM134.071 23H142.771V21H134.071V23ZM141.793 21.7942L134.473 56.5942L136.43 57.0058L143.75 22.2058L141.793 21.7942ZM134.472 56.5961C133.696 60.3226 132.356 62.6994 130.604 63.9706L131.778 65.5894C134.106 63.9006 135.607 60.9574 136.43 57.004L134.472 56.5961ZM130.596 63.9762C128.765 65.3315 126.753 66 124.531 66V68C127.19 68 129.618 67.1885 131.786 65.5838L130.596 63.9762ZM123.151 62.66C124.266 62.66 125.202 62.0598 125.956 61.1641L124.426 59.8759C123.901 60.5002 123.476 60.66 123.151 60.66V62.66ZM125.939 61.1844C126.748 60.2737 127.295 58.8938 127.668 57.1944L125.715 56.7656C125.368 58.3462 124.914 59.3263 124.444 59.8556L125.939 61.1844ZM127.671 57.1793L128.391 53.6393L126.431 53.2407L125.711 56.7807L127.671 57.1793ZM127.09 52.4931C124.905 53.235 123.141 54.124 121.854 55.1896L123.129 56.7304C124.161 55.876 125.677 55.085 127.733 54.3869L127.09 52.4931ZM121.854 55.1896C120.462 56.3417 119.751 57.8653 119.751 59.68H121.751C121.751 58.4547 122.201 57.4983 123.129 56.7304L121.854 55.1896ZM119.751 59.68C119.751 60.5411 120.197 61.2398 120.831 61.7682L122.111 60.2318C121.786 59.9602 121.751 59.7789 121.751 59.68H119.751ZM120.796 61.7372C121.456 62.343 122.256 62.66 123.151 62.66V60.66C122.766 60.66 122.446 60.5371 122.147 60.2629L120.796 61.7372ZM159.989 51.36C156.827 51.36 154.466 50.4629 152.776 48.7729L151.362 50.1871C153.512 52.3371 156.43 53.36 159.989 53.36V51.36ZM152.783 48.7804C151.167 47.1291 150.249 44.3811 150.249 40.3H148.249C148.249 44.6189 149.211 47.9909 151.354 50.1796L152.783 48.7804ZM150.249 40.3C150.249 36.8568 150.868 32.9522 152.13 28.577L150.208 28.023C148.909 32.5278 148.249 36.6232 148.249 40.3H150.249ZM152.13 28.577C153.38 24.2393 155.189 20.557 157.54 17.5112L155.957 16.2888C153.429 19.563 151.518 23.4807 150.208 28.023L152.13 28.577ZM157.536 17.5174C159.867 14.5462 162.517 13.16 165.509 13.16V11.16C161.781 11.16 158.59 12.9338 155.962 16.2826L157.536 17.5174ZM165.509 13.16C166.624 13.16 167.543 13.3091 168.287 13.5798L168.971 11.7002C167.955 11.3309 166.794 11.16 165.509 11.16V13.16ZM168.12 11.7791C166.112 12.9656 164.305 15.3132 162.637 18.6084L164.421 19.5116C166.033 16.3268 167.626 14.3944 169.138 13.5009L168.12 11.7791ZM162.632 18.6172C160.997 21.9294 159.674 25.6178 158.659 29.6775L160.599 30.1625C161.584 26.2222 162.861 22.6706 164.426 19.5028L162.632 18.6172ZM158.659 29.6775C157.645 33.7319 157.129 37.356 157.129 40.54H159.129C159.129 37.564 159.613 34.1081 160.599 30.1625L158.659 29.6775ZM157.129 40.54C157.129 42.7678 157.415 44.6284 158.058 46.0516L159.88 45.2284C159.403 44.1716 159.129 42.6322 159.129 40.54H157.129ZM158.058 46.0516C158.392 46.792 158.853 47.4157 159.473 47.8525C160.101 48.2947 160.827 48.5 161.609 48.5V46.5C161.19 46.5 160.877 46.3953 160.625 46.2175C160.365 46.0343 160.106 45.728 159.88 45.2284L158.058 46.0516ZM161.609 48.5C164.081 48.5 166.282 46.7406 168.254 43.8655L166.604 42.7345C164.736 45.4594 163.057 46.5 161.609 46.5V48.5ZM168.252 43.868C170.288 40.918 171.928 37.2531 173.189 32.8983L171.268 32.3417C170.05 36.5469 168.49 40.002 166.606 42.732L168.252 43.868ZM173.187 32.9065C174.491 28.5453 175.149 24.3286 175.149 20.26H173.149C173.149 24.1115 172.527 28.1347 171.271 32.3335L173.187 32.9065ZM175.149 20.26C175.149 17.7344 174.926 15.6461 174.447 14.035L172.53 14.605C172.931 15.9539 173.149 17.8256 173.149 20.26H175.149ZM174.456 14.0655C174.005 12.3517 173.122 10.9898 171.77 10.0725L170.647 11.7275C171.536 12.3303 172.173 13.2483 172.522 14.5745L174.456 14.0655ZM171.77 10.0725C170.42 9.15642 168.614 8.76 166.469 8.76V10.76C168.404 10.76 169.757 11.1236 170.647 11.7275L171.77 10.0725ZM166.469 8.76C163.245 8.76 160.235 9.43097 157.453 10.7802L158.325 12.5798C160.822 11.369 163.532 10.76 166.469 10.76V8.76ZM157.464 10.7749C154.665 12.0894 152.404 14.0066 150.701 16.5188L152.357 17.6412C153.853 15.4335 155.833 13.7506 158.314 12.5851L157.464 10.7749ZM150.699 16.522C149.017 19.0236 148.189 21.9223 148.189 25.18H150.189C150.189 22.2777 150.921 19.7764 152.359 17.638L150.699 16.522ZM148.189 25.18C148.189 26.2897 148.287 27.2415 148.556 27.939L150.422 27.221C150.291 26.8786 150.189 26.2304 150.189 25.18H148.189ZM148.566 27.9646C148.663 28.1986 148.731 28.3702 148.772 28.4863C148.793 28.5452 148.803 28.5777 148.807 28.5901C148.808 28.5963 148.806 28.588 148.802 28.5695C148.8 28.5582 148.789 28.501 148.789 28.42H150.789C150.789 28.2509 150.747 28.1022 150.734 28.0549C150.712 27.9773 150.685 27.8948 150.656 27.8137C150.597 27.6498 150.515 27.4415 150.412 27.1954L148.566 27.9646ZM149.789 27.42C147.9 27.42 146.633 27.0387 145.839 26.4274L144.619 28.0126C145.905 29.0013 147.678 29.42 149.789 29.42V27.42ZM145.854 26.4391C145.171 25.8932 144.729 24.9568 144.729 23.38H142.729C142.729 25.3232 143.287 26.9468 144.604 28.0009L145.854 26.4391ZM144.729 23.38C144.729 20.9163 145.721 18.5037 147.836 16.1244L146.341 14.7956C143.976 17.4563 142.729 20.3237 142.729 23.38H144.729ZM147.83 16.1309C149.995 13.7381 152.866 11.776 156.476 10.2622L155.702 8.41781C151.872 10.024 148.742 12.1419 146.347 14.7891L147.83 16.1309ZM156.472 10.2637C160.109 8.75468 163.919 8 167.909 8V6C163.659 6 159.589 6.80532 155.706 8.41634L156.472 10.2637ZM167.909 8C172.741 8 176.017 9.31108 177.997 11.7157L179.541 10.4443C177.041 7.40893 173.077 6 167.909 6V8ZM177.997 11.7157C180.044 14.2012 181.129 17.7082 181.129 22.36H183.129C183.129 17.4118 181.974 13.3988 179.541 10.4443L177.997 11.7157ZM181.129 22.36C181.129 26.5141 180.353 30.8638 178.784 35.414L180.674 36.066C182.305 31.3363 183.129 26.7659 183.129 22.36H181.129ZM178.784 35.414C177.232 39.9127 174.835 43.7154 171.595 46.8402L172.983 48.2798C176.463 44.9246 179.026 40.8474 180.674 36.066L178.784 35.414ZM171.595 46.84C168.473 49.8491 164.627 51.36 159.989 51.36V53.36C165.111 53.36 169.465 51.6709 172.983 48.28L171.595 46.84ZM177.271 66C175.634 66 174.23 65.4685 173.014 64.3914L171.688 65.8886C173.272 67.2915 175.148 68 177.271 68V66ZM172.991 64.3718C171.78 63.3624 171.191 62.1042 171.191 60.52H169.191C169.191 62.6958 170.042 64.5176 171.711 65.9082L172.991 64.3718ZM171.191 60.52C171.191 58.9761 171.583 57.7873 172.298 56.8778L170.725 55.6422C169.68 56.9727 169.191 58.624 169.191 60.52H171.191ZM172.298 56.8778C173.076 55.8877 174.092 55.0795 175.368 54.4595L174.494 52.6605C172.971 53.4005 171.707 54.3923 170.725 55.6422L172.298 56.8778ZM175.347 54.4695C176.693 53.8543 178.508 53.1888 180.808 52.4751L180.215 50.5649C177.874 51.2913 175.97 51.9857 174.515 52.6505L175.347 54.4695ZM181.49 51.7273L188.75 17.4673L186.793 17.0527L179.533 51.3127L181.49 51.7273ZM188.75 17.464C189.528 13.7323 190.85 11.3537 192.566 10.0838L191.376 8.47616C189.092 10.1663 187.615 13.1077 186.792 17.056L188.75 17.464ZM192.558 10.0894C194.434 8.72894 196.469 8.06 198.691 8.06V6.06C196.033 6.06 193.589 6.87107 191.384 8.47058L192.558 10.0894ZM198.691 8.06C200.328 8.06 201.732 8.59151 202.948 9.66859L204.274 8.17141C202.69 6.7685 200.814 6.06 198.691 6.06V8.06ZM202.971 9.68822C204.182 10.6976 204.771 11.9558 204.771 13.54H206.771C206.771 11.3642 205.92 9.54243 204.251 8.15178L202.971 9.68822ZM204.771 13.54C204.771 14.4184 204.714 15.1818 204.605 15.8356L206.578 16.1644C206.709 15.3782 206.771 14.5016 206.771 13.54H204.771ZM205.591 15H202.771V17H205.591V15ZM203.767 16.0905C203.845 15.2305 203.891 14.6364 203.891 14.38H201.891C201.891 14.5236 201.857 15.0096 201.775 15.9095L203.767 16.0905ZM203.891 14.38C203.891 13.4826 203.568 12.6814 202.864 12.106L201.598 13.654C201.775 13.7986 201.891 13.9974 201.891 14.38H203.891ZM202.864 12.106C202.223 11.5815 201.451 11.34 200.611 11.34V13.34C201.051 13.34 201.359 13.4585 201.598 13.654L202.864 12.106ZM200.611 11.34C199.443 11.34 198.388 11.8755 197.463 12.755L198.84 14.205C199.514 13.5645 200.1 13.34 200.611 13.34V11.34ZM197.482 12.7367C196.444 13.6712 195.806 15.1869 195.431 17.0639L197.392 17.4561C197.736 15.7331 198.259 14.7288 198.82 14.2233L197.482 12.7367ZM195.434 17.0496L194.414 21.7896L196.369 22.2104L197.389 17.4704L195.434 17.0496ZM195.391 23H199.771V21H195.391V23ZM198.786 21.8276L198.366 24.2276L200.336 24.5724L200.756 22.1724L198.786 21.8276ZM199.351 23.4H194.911V25.4H199.351V23.4ZM193.933 24.1917L187.033 56.5917L188.989 57.0083L195.889 24.6083L193.933 24.1917ZM187.032 56.5981C186.252 60.3791 184.947 62.7488 183.279 63.9741L184.463 65.5859C186.715 63.9312 188.17 60.9809 188.991 57.0019L187.032 56.5981ZM183.269 63.982C181.481 65.3318 179.492 66 177.271 66V68C179.93 68 182.342 67.1882 184.474 65.578L183.269 63.982ZM175.891 62.66C177.078 62.66 178.039 62.0574 178.754 61.08C179.442 60.1374 179.936 58.8115 180.288 57.193L178.334 56.7671C178.007 58.2686 177.59 59.2826 177.139 59.9C176.713 60.4826 176.304 60.66 175.891 60.66V62.66ZM180.287 57.1987L181.067 53.7187L179.115 53.2813L178.335 56.7613L180.287 57.1987ZM179.77 52.5531C177.591 53.2931 175.846 54.1609 174.597 55.1873L175.866 56.7327C176.857 55.9191 178.352 55.147 180.413 54.4469L179.77 52.5531ZM174.594 55.1896C173.202 56.3417 172.491 57.8653 172.491 59.68H174.491C174.491 58.4547 174.941 57.4983 175.869 56.7304L174.594 55.1896ZM172.491 59.68C172.491 60.5411 172.937 61.2398 173.571 61.7682L174.851 60.2318C174.526 59.9602 174.491 59.7789 174.491 59.68H172.491ZM173.536 61.7372C174.196 62.343 174.996 62.66 175.891 62.66V60.66C175.506 60.66 175.186 60.5371 174.887 60.2629L173.536 61.7372Z" fill="#FF7C52" mask="url(#path-1-outside-1_150_4898)"/>
</g>
<defs>
<filter id="filter0_d_150_4898" x="0" y="0" width="216.771" height="82" filterUnits="userSpaceOnUse" color-interpolation-filters="sRGB">
<feFlood flood-opacity="0" result="BackgroundImageFix"/>
<feColorMatrix in="SourceAlpha" type="matrix" values="0 0 0 0 0 0 0 0 0 0 0 0 0 0 0 0 0 0 127 0" result="hardAlpha"/>
<feOffset dy="4"/>
<feGaussianBlur stdDeviation="5"/>
<feComposite in2="hardAlpha" operator="out"/>
<feColorMatrix type="matrix" values="0 0 0 0 0 0 0 0 0 0 0 0 0 0 0 0 0 0 0.6 0"/>
<feBlend mode="normal" in2="BackgroundImageFix" result="effect1_dropShadow_150_4898"/>
<feBlend mode="normal" in="SourceGraphic" in2="effect1_dropShadow_150_4898" result="shape"/>
</filter>
</defs>
</svg>
